<svg xmlns="http://www.w3.org/2000/svg" fill="none" viewBox="0 0 414 404"><rect width="412.626" height="357.001" x=".694" y="46.408" fill="#D5DDE7" rx="57.824"/><g filter="url(#a)"><rect width="331.546" height="331.546" x="41.234" fill="#F3F3F3" rx="53.739"/></g><path fill="url(#b)" fill-rule="evenodd" d="M244.214 197.513h15.928l15.626-11.032c6.199-4.372 14.751.058 14.751 7.643v62.17c0 7.583-8.552 12.016-14.751 7.644l-15.626-11.032h-15.928c-5.019 0-9.088-4.071-9.088-9.088v-37.217a9.088 9.088 0 0 1 9.088-9.088Zm83.545 29.027v-.001a24.95 24.95 0 0 0-3.891-13.364 25.318 25.318 0 0 0-10.153-9.111c-1.816-.897-4.036-.189-4.957 1.585-.922 1.777-.195 3.942 1.622 4.839 6.166 3.048 9.996 9.203 10.002 16.069-.007 6.866-3.836 13.021-10.002 16.068-1.817.897-2.544 3.062-1.622 4.84.921 1.773 3.141 2.481 4.957 1.584a25.308 25.308 0 0 0 10.153-9.11 24.956 24.956 0 0 0 3.891-13.365v-.034Zm-19.744-.001a15.173 15.173 0 0 0-2.151-7.267c-.46-1.15-1.633-1.968-3.009-1.968-1.776 0-3.216 1.362-3.216 3.042 0 .862.38 1.64.989 2.194.577 1.24.925 2.594.992 4.017a10.697 10.697 0 0 1-.992 4.017 2.956 2.956 0 0 0-.989 2.193c0 1.68 1.44 3.042 3.216 3.042 1.376 0 2.549-.818 3.009-1.967a15.18 15.18 0 0 0 2.151-7.268h.001l-.001-.017.001-.018h-.001Z" clip-rule="evenodd"/><path fill="url(#c)" d="M205.876 149.046h-68.133V113.38c0-9.173 7.463-16.637 16.637-16.637h51.496c9.594 0 17.372-7.777 17.372-17.371 0-9.594-7.778-17.372-17.372-17.372H154.38C126.048 62 103 85.049 103 113.38v139.313c0 9.594 7.777 17.372 17.371 17.372 9.595 0 17.372-7.778 17.372-17.372v-68.904h68.133c9.594 0 17.372-7.777 17.372-17.371 0-9.594-7.778-17.372-17.372-17.372"/><defs><linearGradient id="b" x1="158.629" x2="242.858" y1="209.063" y2="300.273" gradientUnits="userSpaceOnUse"><stop stop-color="#AFDBFF"/><stop offset="1" stop-color="#3F8AF5"/></linearGradient><linearGradient id="c" x1="33.698" x2="216.596" y1="130.513" y2="230.492" gradientUnits="userSpaceOnUse"><stop stop-color="#AFDBFF"/><stop offset="1" stop-color="#3F8AF5"/></linearGradient><filter id="a" width="333.546" height="355.546" x="41.234" y="0" color-interpolation-filters="sRGB" filterUnits="userSpaceOnUse"><feFlood flood-opacity="0" result="BackgroundImageFix"/><feColorMatrix in="SourceAlpha" result="hardAlpha" values="0 0 0 0 0 0 0 0 0 0 0 0 0 0 0 0 0 0 127 0"/><feOffset dy="24"/><feColorMatrix values="0 0 0 0 0.564706 0 0 0 0 0.619608 0 0 0 0 0.686275 0 0 0 1 0"/><feBlend in2="BackgroundImageFix" result="effect1_dropShadow_208_84"/><feBlend in="SourceGraphic" in2="effect1_dropShadow_208_84" result="shape"/><feColorMatrix in="SourceAlpha" result="hardAlpha" values="0 0 0 0 0 0 0 0 0 0 0 0 0 0 0 0 0 0 127 0"/><feMorphology in="SourceAlpha" radius="2" result="effect2_innerShadow_208_84"/><feOffset dx="2"/><feGaussianBlur stdDeviation="1"/><feComposite in2="hardAlpha" k2="-1" k3="1" operator="arithmetic"/><feColorMatrix values="0 0 0 0 1 0 0 0 0 1 0 0 0 0 1 0 0 0 0.763658 0"/><feBlend in2="shape" result="effect2_innerShadow_208_84"/></filter></defs></svg>