<svg xmlns="http://www.w3.org/2000/svg" fill="none" viewBox="0 0 735 236">
  <g filter="url(#a)">
    <rect width="70.4" height="70.4" x="636.344" y="131.898" fill="url(#b)" rx="8" transform="rotate(1 636.344 131.898)"/>
    <rect width="73.4" height="73.4" x="634.87" y="130.372" stroke="#fff" stroke-opacity=".56" stroke-width="3" rx="9.5" transform="rotate(1 634.87 130.372)"/>
  </g>
  <path fill="#262B62" fill-rule="evenodd" d="M676.044 152.781a2.399 2.399 0 0 0-2.48.152l-11.136 7.616h-5.104a2.4 2.4 0 0 0-2.4 2.4v9.56a2.4 2.4 0 0 0 2.4 2.4h5.104l11.136 7.576a2.4 2.4 0 0 0 3.76-1.976v-25.6a2.4 2.4 0 0 0-1.28-2.128Zm-14.72 18.928h-2.4a.8.8 0 0 1-.8-.8v-6.4a.8.8 0 0 1 .8-.8h2.4v8Zm3.2.76 9.6 6.56v-22.616l-9.6 6.56v9.496Zm16-10.36a1.6 1.6 0 0 0-1.6 1.6v8a1.6 1.6 0 1 0 3.2 0v-8a1.6 1.6 0 0 0-1.6-1.6Zm3.2-1.6a1.6 1.6 0 1 1 3.2 0v14.4a1.6 1.6 0 0 1-3.2 0v-14.4Z" clip-rule="evenodd"/>
  <g filter="url(#c)">
    <rect width="70.277" height="70.277" x="635.115" y="10.771" fill="url(#d)" rx="7.986"/>
    <rect width="73.277" height="73.277" x="633.615" y="9.271" stroke="#fff" stroke-opacity=".56" stroke-width="3" rx="9.486"/>
  </g>
  <path fill="#000" d="M651.701 36.663V54.91h2.99v-8.076h8.919V44.28h-8.919v-5.06h9.456v-2.556h-12.446Z"/>
  <path fill="#262B62" d="M651.701 36.663V54.91h2.99v-8.076h8.919V44.28h-8.919v-5.06h9.456v-2.556h-12.446Z"/>
  <path fill="#000" d="M670.715 36.663c-.613.64-1.38 1.227-2.3 1.79-.92.51-1.789.868-2.606 1.072v2.965c1.686-.486 3.066-1.227 4.165-2.224V54.91h2.99V36.663h-2.249Z"/>
  <path fill="#262B62" d="M670.715 36.663c-.613.64-1.38 1.227-2.3 1.79-.92.51-1.789.868-2.606 1.072v2.965c1.686-.486 3.066-1.227 4.165-2.224V54.91h2.99V36.663h-2.249Z"/>
  <path fill="#000" d="M683.211 36.305c-1.968 0-3.552.665-4.754 1.994-1.175 1.252-1.763 2.888-1.788 4.932h2.99c.051-1.431.357-2.53.92-3.246.562-.766 1.405-1.15 2.53-1.15 1.047 0 1.84.23 2.376.716.511.485.792 1.227.792 2.223 0 1.022-.408 1.993-1.201 2.888-.511.537-1.329 1.227-2.504 2.044-2.121 1.457-3.527 2.581-4.191 3.348-1.227 1.38-1.815 2.99-1.815 4.856h12.727v-2.633h-8.996c.409-.92 1.534-1.993 3.399-3.22 1.789-1.2 3.067-2.172 3.782-2.938 1.176-1.304 1.789-2.735 1.789-4.32 0-1.635-.562-2.938-1.686-3.96-1.15-1.023-2.607-1.534-4.37-1.534Z"/>
  <path fill="#262B62" d="M683.211 36.305c-1.968 0-3.552.665-4.754 1.994-1.175 1.252-1.763 2.888-1.788 4.932h2.99c.051-1.431.357-2.53.92-3.246.562-.766 1.405-1.15 2.53-1.15 1.047 0 1.84.23 2.376.716.511.485.792 1.227.792 2.223 0 1.022-.408 1.993-1.201 2.888-.511.537-1.329 1.227-2.504 2.044-2.121 1.457-3.527 2.581-4.191 3.348-1.227 1.38-1.815 2.99-1.815 4.856h12.727v-2.633h-8.996c.409-.92 1.534-1.993 3.399-3.22 1.789-1.2 3.067-2.172 3.782-2.938 1.176-1.304 1.789-2.735 1.789-4.32 0-1.635-.562-2.938-1.686-3.96-1.15-1.023-2.607-1.534-4.37-1.534Z"/>
  <g filter="url(#e)">
    <mask id="g" width="41" height="41" x="138.473" y="94.862" fill="#000" maskUnits="userSpaceOnUse">
      <path fill="#fff" d="M138.473 94.862h41v41h-41z"/>
      <path fill-rule="evenodd" d="M161.616 99.862a2 2 0 0 0-2-2h-2a2 2 0 0 0-2 2v12.143h-12.143a2 2 0 0 0-2 2v2a2 2 0 0 0 2 2h12.143v12.143a2 2 0 0 0 2 2h2a2 2 0 0 0 2-2v-12.143h12.142a2 2 0 0 0 2-2v-2a2 2 0 0 0-2-2h-12.142V99.863Z" clip-rule="evenodd"/>
    </mask>
    <path fill="url(#f)" fill-rule="evenodd" d="M161.616 99.862a2 2 0 0 0-2-2h-2a2 2 0 0 0-2 2v12.143h-12.143a2 2 0 0 0-2 2v2a2 2 0 0 0 2 2h12.143v12.143a2 2 0 0 0 2 2h2a2 2 0 0 0 2-2v-12.143h12.142a2 2 0 0 0 2-2v-2a2 2 0 0 0-2-2h-12.142V99.863Z" clip-rule="evenodd"/>
    <path fill="#fff" d="M155.616 112.005v3h3v-3h-3Zm0 6h3v-3h-3v3Zm6 0v-3h-3v3h3Zm0-6h-3v3h3v-3Zm-2-11.142a1 1 0 0 1-1-1h6a5 5 0 0 0-5-5v6Zm-2 0h2v-6h-2v6Zm1-1a1 1 0 0 1-1 1v-6a5 5 0 0 0-5 5h6Zm0 12.142V99.863h-6v12.142h6Zm-15.143 3h12.143v-6h-12.143v6Zm1-1a1 1 0 0 1-1 1v-6a5 5 0 0 0-5 5h6Zm0 2v-2h-6v2h6Zm-1-1a1 1 0 0 1 1 1h-6a5 5 0 0 0 5 5v-6Zm12.143 0h-12.143v6h12.143v-6Zm3 15.143v-12.143h-6v12.143h6Zm-1-1a1 1 0 0 1 1 1h-6a5 5 0 0 0 5 5v-6Zm2 0h-2v6h2v-6Zm-1 1a1 1 0 0 1 1-1v6a5 5 0 0 0 5-5h-6Zm0-12.143v12.143h6v-12.143h-6Zm15.142-3h-12.142v6h12.142v-6Zm-1 1a1 1 0 0 1 1-1v6a5 5 0 0 0 5-5h-6Zm0-2v2h6v-2h-6Zm1 1a1 1 0 0 1-1-1h6a5 5 0 0 0-5-5v6Zm-12.142 0h12.142v-6h-12.142v6Zm-3-15.142v12.142h6V99.863h-6Z" mask="url(#g)"/>
  </g>
  <g filter="url(#h)">
    <rect width="88" height="70" x="3.982" y="86.404" fill="#D5DDE7" rx="7.228"/>
    <g filter="url(#i)">
      <rect width="70.4" height="70.4" x="12.783" y="73.606" fill="url(#j)" rx="7"/>
    </g>
    <path fill="url(#k)" fill-rule="evenodd" d="M49.656 86.724a1.8 1.8 0 0 1 1.86-.114 1.8 1.8 0 0 1 .96 1.596v19.2a1.8 1.8 0 0 1-2.82 1.482l-8.352-5.682h-3.828a1.8 1.8 0 0 1-1.8-1.8v-7.17a1.8 1.8 0 0 1 1.8-1.8h3.828l8.352-5.712Zm-10.98 14.082h1.8v-6h-1.8a.6.6 0 0 0-.6.6v4.8a.603.603 0 0 0 .6.6Zm11.4 5.49-7.2-4.92v-7.122l7.2-4.92v16.962Zm3.6-11.49a1.2 1.2 0 1 1 2.4 0v6a1.2 1.2 0 1 1-2.4 0v-6Zm4.8-3.6a1.2 1.2 0 0 0-1.2 1.2v10.8a1.2 1.2 0 1 0 2.4 0v-10.8a1.2 1.2 0 0 0-1.2-1.2Zm-1.995 27.752c-1.232 0-2.224.416-2.976 1.248-.736.784-1.104 1.808-1.12 3.088h1.872c.032-.896.224-1.584.576-2.032.352-.48.88-.72 1.584-.72.656 0 1.152.144 1.488.448.32.304.496.768.496 1.392 0 .64-.256 1.248-.752 1.808-.32.336-.832.768-1.568 1.28-1.328.912-2.208 1.616-2.624 2.096-.768.864-1.136 1.872-1.136 3.04h7.968v-1.648h-5.632c.256-.576.96-1.248 2.128-2.016 1.12-.752 1.92-1.36 2.368-1.84.736-.816 1.12-1.712 1.12-2.704 0-1.024-.352-1.84-1.056-2.48-.72-.64-1.632-.96-2.736-.96Zm-19.728 11.648v-11.424h7.792v1.6h-5.92v3.168h5.584v1.6h-5.584v5.056h-1.872Zm10.464-10.304c.576-.352 1.056-.72 1.44-1.12h1.408v11.424h-1.872v-9.168c-.688.624-1.552 1.088-2.608 1.392v-1.856a6.786 6.786 0 0 0 1.632-.672Z" clip-rule="evenodd"/>
  </g>
  <g filter="url(#l)">
    <rect width="29" height="21.821" x="553.738" y="34.999" fill="#fff" rx="4.8"/>
  </g>
  <path fill="url(#m)" fill-rule="evenodd" d="M558.038 39.296a1.6 1.6 0 0 0-1.6 1.6v1.6a1.6 1.6 0 0 0 1.599 1.6h20.8a1.6 1.6 0 0 0 1.601-1.6v-1.6a1.6 1.6 0 0 0-1.601-1.6h-20.799Zm0 8.914a1.6 1.6 0 0 0-1.6 1.6v1.6a1.6 1.6 0 0 0 1.599 1.6h20.8a1.6 1.6 0 0 0 1.601-1.6v-1.6a1.6 1.6 0 0 0-1.601-1.6h-20.799Z" clip-rule="evenodd"/>
  <g filter="url(#n)">
    <rect width="29" height="21.821" x="553.738" y="156.796" fill="#fff" rx="4.8"/>
  </g>
  <path fill="url(#o)" fill-rule="evenodd" d="M558.038 161.093a1.6 1.6 0 0 0-1.6 1.6v1.6a1.6 1.6 0 0 0 1.599 1.6h20.8a1.6 1.6 0 0 0 1.601-1.6v-1.6a1.6 1.6 0 0 0-1.601-1.6h-20.799Zm0 8.914a1.6 1.6 0 0 0-1.6 1.6v1.6a1.6 1.6 0 0 0 1.599 1.6h20.8a1.6 1.6 0 0 0 1.601-1.6v-1.6c0-.883-.717-1.6-1.601-1.6h-20.799Z" clip-rule="evenodd"/>
  <g filter="url(#p)">
    <mask id="r" width="308" height="59" x="214" y="137.924" fill="#000" maskUnits="userSpaceOnUse">
      <path fill="#fff" d="M214 137.924h308v59H214z"/>
      <path fill-rule="evenodd" d="M243.783 141.924c-14.24 0-25.783 11.544-25.783 25.783s11.543 25.783 25.783 25.783H439.73c14.239 0 25.782-11.544 25.782-25.783s-11.543-25.783-25.782-25.783H243.783Zm235.686 7.535v7.82c4.469 1.49 7.449 5.587 7.449 10.428 0 4.841-2.98 8.938-7.449 10.428v7.82c8.566-1.862 14.897-9.31 14.897-18.248s-6.331-16.386-14.897-18.248Zm23.634 0v7.82c4.469 1.49 7.449 5.587 7.449 10.428 0 4.841-2.98 8.938-7.449 10.428v7.82c8.566-1.862 14.897-9.31 14.897-18.248s-6.331-16.386-14.897-18.248Z" clip-rule="evenodd"/>
    </mask>
    <path fill="url(#q)" fill-rule="evenodd" d="M243.783 141.924c-14.24 0-25.783 11.544-25.783 25.783s11.543 25.783 25.783 25.783H439.73c14.239 0 25.782-11.544 25.782-25.783s-11.543-25.783-25.782-25.783H243.783Zm235.686 7.535v7.82c4.469 1.49 7.449 5.587 7.449 10.428 0 4.841-2.98 8.938-7.449 10.428v7.82c8.566-1.862 14.897-9.31 14.897-18.248s-6.331-16.386-14.897-18.248Zm23.634 0v7.82c4.469 1.49 7.449 5.587 7.449 10.428 0 4.841-2.98 8.938-7.449 10.428v7.82c8.566-1.862 14.897-9.31 14.897-18.248s-6.331-16.386-14.897-18.248Z" clip-rule="evenodd"/>
    <path fill="#fff" fill-opacity=".538" d="M479.469 157.279h-3.093v2.23l2.115.706.978-2.936Zm0-7.82.658-3.024-3.751-.815v3.839h3.093Zm0 28.676-.978-2.936-2.115.706v2.23h3.093Zm0 7.82h-3.093v3.839l3.751-.815-.658-3.024Zm23.634-28.676h-3.093v2.23l2.115.706.978-2.936Zm0-7.82.658-3.024-3.751-.815v3.839h3.093Zm0 28.676-.978-2.936-2.115.706v2.23h3.093Zm0 7.82h-3.093v3.839l3.751-.815-.658-3.024Zm-282.009-18.248c0-12.531 10.158-22.689 22.689-22.689v-6.187c-15.948 0-28.877 12.928-28.877 28.876h6.188Zm22.689 22.689c-12.531 0-22.689-10.158-22.689-22.689h-6.188c0 15.948 12.929 28.876 28.877 28.876v-6.187Zm195.947 0H243.783v6.187H439.73v-6.187Zm22.688-22.689c0 12.531-10.158 22.689-22.688 22.689v6.187c15.948 0 28.876-12.928 28.876-28.876h-6.188Zm-22.688-22.689c12.53 0 22.688 10.158 22.688 22.689h6.188c0-15.948-12.928-28.876-28.876-28.876v6.187Zm-195.947 0H439.73v-6.187H243.783v6.187Zm238.78 12.261v-7.82h-6.187v7.82h6.187Zm7.449 10.428c0-6.164-3.823-11.449-9.564-13.363l-1.957 5.871c3.197 1.065 5.333 3.973 5.333 7.492h6.188Zm-9.564 13.363c5.741-1.914 9.564-7.199 9.564-13.363h-6.188c0 3.519-2.136 6.427-5.333 7.492l1.957 5.871Zm2.115 4.885v-7.82h-6.187v7.82h6.187Zm8.709-18.248c0 7.419-5.254 13.658-12.46 15.225l1.315 6.047c9.924-2.158 17.333-10.815 17.333-21.272h-6.188Zm-12.46-15.225c7.206 1.567 12.46 7.806 12.46 15.225h6.188c0-10.457-7.409-19.114-17.333-21.272l-1.315 6.047Zm27.385 4.797v-7.82h-6.187v7.82h6.187Zm7.449 10.428c0-6.164-3.823-11.449-9.564-13.363l-1.957 5.871c3.197 1.065 5.333 3.973 5.333 7.492h6.188Zm-9.564 13.363c5.741-1.914 9.564-7.199 9.564-13.363h-6.188c0 3.519-2.136 6.427-5.333 7.492l1.957 5.871Zm2.115 4.885v-7.82h-6.187v7.82h6.187Zm8.709-18.248c0 7.419-5.254 13.658-12.46 15.225l1.315 6.047c9.924-2.158 17.333-10.815 17.333-21.272h-6.188Zm-12.46-15.225c7.206 1.567 12.46 7.806 12.46 15.225h6.188c0-10.457-7.409-19.114-17.333-21.272l-1.315 6.047Z" mask="url(#r)"/>
  </g>
  <path fill="#fff" fill-rule="evenodd" d="M281.504 155.589v18.77h2.733v-18.77h-2.733Zm7.425 7.09c1.212-1.34 2.836-2.011 4.847-2.011 2.011 0 3.636.671 4.848 2.011 1.186 1.315 1.804 2.991 1.804 5.028 0 2.011-.593 3.687-1.779 4.976-1.237 1.341-2.862 2.037-4.873 2.037s-3.635-.696-4.873-2.037c-1.186-1.289-1.779-2.965-1.779-4.976 0-2.037.593-3.713 1.805-5.028Zm7.812 1.728c-.722-1.006-1.701-1.496-2.965-1.496-1.263 0-2.243.49-2.939 1.496-.619.851-.902 1.959-.902 3.3 0 1.341.283 2.424.902 3.274.696.98 1.676 1.496 2.939 1.496 1.264 0 2.243-.516 2.965-1.496.619-.876.929-1.959.929-3.274 0-1.341-.31-2.449-.929-3.3Zm10.803-3.223c.671-.361 1.418-.516 2.243-.516 3.301 0 4.976 1.805 4.976 5.466v8.225h-2.733v-7.993c0-2.269-1.057-3.403-3.119-3.403-.774 0-1.47.258-2.037.825-.619.619-1.006 1.47-1.109 2.553v8.018h-2.733v-13.33h2.733v1.65c.516-.67 1.109-1.16 1.779-1.495Zm11.499 1.367c1.109-1.264 2.579-1.883 4.383-1.883 1.754 0 3.094.697 4.074 2.14v-1.779h2.733v12.453c0 4.229-2.088 6.343-6.214 6.343-1.856 0-3.274-.361-4.254-1.057-.98-.722-1.573-1.805-1.83-3.275h2.733c.154.774.464 1.341.979 1.676.49.31 1.289.49 2.372.49 2.321 0 3.481-1.263 3.481-3.764v-2.063c-.98 1.47-2.32 2.218-4.074 2.218-1.804 0-3.274-.619-4.383-1.831-1.134-1.212-1.676-2.81-1.676-4.821 0-2.011.542-3.61 1.676-4.847Zm7.529 1.546c-.671-.825-1.573-1.211-2.733-1.211-1.16 0-2.063.386-2.682 1.211-.67.774-.979 1.883-.979 3.301 0 1.289.258 2.32.773 3.068.593.876 1.547 1.34 2.888 1.34 1.16 0 2.062-.386 2.733-1.16.619-.799.954-1.882.954-3.248 0-1.393-.335-2.501-.954-3.301Zm22.018-3.429c-1.805 0-3.197.645-4.125 1.96v-1.599h-2.553v18.435h2.733v-7.065c1.083 1.547 2.424 2.321 4.074 2.321 1.908 0 3.429-.696 4.512-2.089 1.005-1.289 1.521-2.913 1.521-4.872 0-2.063-.516-3.713-1.547-5.002-1.134-1.392-2.655-2.089-4.615-2.089Zm-.412 2.218c1.34 0 2.32.464 2.965 1.444.515.825.799 1.959.799 3.429 0 1.469-.31 2.604-.877 3.429-.644.876-1.624 1.315-2.965 1.315-1.031 0-1.856-.413-2.475-1.212-.722-.877-1.057-2.037-1.057-3.455v-.232c0-1.367.284-2.475.851-3.3.644-.954 1.573-1.418 2.759-1.418Zm15.34-2.218c-.825 0-1.547.232-2.166.748-.515.361-.954.902-1.289 1.624v-2.011h-2.733v13.33h2.733v-7.064c0-1.161.335-2.115 1.032-2.837.644-.67 1.392-1.005 2.217-1.005.619 0 1.263.077 1.934.284v-2.733c-.464-.232-1.057-.336-1.728-.336Zm9.05 0c-1.96 0-3.532.671-4.667 2.037-1.186 1.341-1.753 2.991-1.753 4.976 0 2.192.619 3.919 1.856 5.208 1.135 1.212 2.707 1.831 4.667 1.831 1.779 0 3.249-.516 4.409-1.521.928-.825 1.521-1.882 1.83-3.12h-2.733c-.361.773-.747 1.366-1.211 1.727-.593.439-1.367.671-2.321.671-1.083 0-1.934-.361-2.552-1.032-.619-.696-.954-1.701-1.057-2.99h10.106c-.025-2.372-.567-4.229-1.598-5.569-1.135-1.496-2.81-2.218-4.976-2.218Zm.077 2.243c2.166 0 3.378 1.161 3.636 3.481h-7.194c.155-1.134.542-1.985 1.109-2.578.619-.619 1.418-.903 2.449-.903Zm13.794-2.243c-1.599 0-2.914.336-3.919 1.032-1.006.67-1.495 1.624-1.495 2.836 0 1.134.515 2.037 1.546 2.681.619.413 1.728.799 3.301 1.16 1.366.31 2.268.568 2.681.774.773.361 1.186.876 1.186 1.521 0 1.186-1.083 1.805-3.197 1.805-1.031 0-1.753-.181-2.217-.516-.464-.361-.8-1.005-.954-1.908h-2.682c.31 3.094 2.269 4.667 5.93 4.667 3.945 0 5.93-1.418 5.93-4.228 0-1.186-.541-2.115-1.598-2.785-.722-.464-1.857-.902-3.378-1.263-1.34-.335-2.217-.593-2.681-.8-.722-.335-1.083-.721-1.083-1.186 0-.515.232-.928.722-1.186.412-.257 1.031-.361 1.856-.361.928 0 1.65.155 2.114.465.439.283.748.773.954 1.495h2.656c-.309-2.81-2.217-4.203-5.672-4.203Zm9.488 1.032c1.005-.696 2.32-1.032 3.919-1.032 3.455 0 5.363 1.393 5.672 4.203h-2.656c-.206-.722-.515-1.212-.954-1.495-.464-.31-1.186-.465-2.114-.465-.825 0-1.444.104-1.856.361-.49.258-.722.671-.722 1.186 0 .465.361.851 1.083 1.186.464.207 1.34.465 2.681.8 1.521.361 2.656.799 3.378 1.263 1.057.67 1.598 1.599 1.598 2.785 0 2.81-1.985 4.228-5.93 4.228-3.661 0-5.62-1.573-5.93-4.667h2.682c.154.903.49 1.547.954 1.908.464.335 1.186.516 2.217.516 2.114 0 3.197-.619 3.197-1.805 0-.645-.413-1.16-1.186-1.521-.413-.206-1.315-.464-2.681-.774-1.573-.361-2.682-.747-3.301-1.16-1.031-.644-1.547-1.547-1.547-2.681 0-1.212.49-2.166 1.496-2.836Z" clip-rule="evenodd"/>
  <g filter="url(#s)">
    <mask id="u" width="284" height="59" x="214" y="16.127" fill="#000" maskUnits="userSpaceOnUse">
      <path fill="#fff" d="M214 16.127h284v59H214z"/>
      <path fill-rule="evenodd" d="M243.783 20.127C229.543 20.127 218 31.67 218 45.91c0 14.239 11.543 25.782 25.783 25.782H439.73c14.239 0 25.782-11.543 25.782-25.782 0-14.24-11.543-25.783-25.782-25.783H243.783Zm235.686 15.355v-7.82c8.566 1.861 14.897 9.31 14.897 18.248s-6.331 16.386-14.897 18.248v-7.82c4.469-1.49 7.449-5.587 7.449-10.428 0-4.842-2.98-8.938-7.449-10.428Z" clip-rule="evenodd"/>
    </mask>
    <path fill="url(#t)" fill-rule="evenodd" d="M243.783 20.127C229.543 20.127 218 31.67 218 45.91c0 14.239 11.543 25.782 25.783 25.782H439.73c14.239 0 25.782-11.543 25.782-25.782 0-14.24-11.543-25.783-25.782-25.783H243.783Zm235.686 15.355v-7.82c8.566 1.861 14.897 9.31 14.897 18.248s-6.331 16.386-14.897 18.248v-7.82c4.469-1.49 7.449-5.587 7.449-10.428 0-4.842-2.98-8.938-7.449-10.428Z" clip-rule="evenodd"/>
    <path fill="#fff" fill-opacity=".538" d="m479.469 27.661.658-3.023-3.751-.815v3.838h3.093Zm0 7.821h-3.093v2.23l2.115.705.978-2.935Zm0 28.676h-3.093v3.839l3.751-.816-.658-3.023Zm0-7.82-.978-2.936-2.115.705v2.23h3.093ZM221.094 45.91c0-12.53 10.158-22.689 22.689-22.689v-6.188c-15.948 0-28.877 12.929-28.877 28.877h6.188Zm22.689 22.688c-12.531 0-22.689-10.158-22.689-22.688h-6.188c0 15.948 12.929 28.876 28.877 28.876v-6.188Zm195.947 0H243.783v6.188H439.73v-6.188Zm22.688-22.688c0 12.53-10.158 22.688-22.688 22.688v6.188c15.948 0 28.876-12.928 28.876-28.876h-6.188ZM439.73 23.22c12.53 0 22.688 10.158 22.688 22.689h6.188c0-15.948-12.928-28.877-28.876-28.877v6.188Zm-195.947 0H439.73v-6.188H243.783v6.188Zm232.593 4.44v7.821h6.187v-7.82h-6.187Zm21.084 18.25c0-10.457-7.409-19.114-17.333-21.272l-1.315 6.047c7.206 1.566 12.46 7.806 12.46 15.225h6.188Zm-17.333 21.27c9.924-2.157 17.333-10.814 17.333-21.271h-6.188c0 7.419-5.254 13.658-12.46 15.225l1.315 6.046Zm-3.751-10.844v7.821h6.187v-7.82h-6.187Zm7.448-10.427c0 3.519-2.136 6.427-5.333 7.492l1.957 5.87c5.741-1.913 9.564-7.199 9.564-13.362h-6.188Zm-5.333-7.493c3.197 1.066 5.333 3.974 5.333 7.493h6.188c0-6.164-3.823-11.45-9.564-13.363l-1.957 5.87Z" mask="url(#u)"/>
  </g>
  <path fill="#fff" fill-rule="evenodd" d="M289.458 55.234v-18.77h2.733v7.323c.49-.773 1.108-1.367 1.856-1.727.67-.361 1.418-.516 2.269-.516 1.598 0 2.81.464 3.635 1.418.774.902 1.16 2.243 1.16 3.996v8.276h-2.733v-7.812c0-1.186-.257-2.062-.721-2.681-.516-.645-1.315-.954-2.347-.954-.928 0-1.675.36-2.243 1.109-.593.747-.876 1.701-.876 2.861v7.477h-2.733Zm-12.35-12.659c1.005-.696 2.32-1.031 3.919-1.031 3.455 0 5.363 1.392 5.672 4.202h-2.656c-.206-.721-.515-1.211-.954-1.495-.464-.31-1.186-.464-2.114-.464-.825 0-1.444.103-1.856.36-.49.259-.722.671-.722 1.187 0 .464.361.85 1.083 1.186.464.206 1.341.464 2.681.8 1.521.36 2.656.798 3.378 1.263 1.057.67 1.598 1.598 1.598 2.784 0 2.81-1.985 4.228-5.93 4.228-3.661 0-5.62-1.572-5.93-4.666h2.682c.154.902.49 1.547.954 1.908.464.335 1.186.515 2.217.515 2.114 0 3.197-.618 3.197-1.804 0-.645-.413-1.16-1.186-1.522-.413-.206-1.315-.464-2.681-.773-1.573-.361-2.682-.748-3.301-1.16-1.031-.645-1.546-1.547-1.546-2.682 0-1.212.489-2.166 1.495-2.836Zm28.386.98c1.212-1.34 2.837-2.011 4.848-2.011 2.011 0 3.635.67 4.847 2.01 1.186 1.316 1.804 2.992 1.804 5.029 0 2.01-.593 3.686-1.779 4.976-1.237 1.34-2.861 2.036-4.872 2.036-2.011 0-3.636-.696-4.873-2.036-1.186-1.29-1.779-2.965-1.779-4.976 0-2.037.593-3.713 1.804-5.028Zm7.813 1.727c-.722-1.005-1.702-1.495-2.965-1.495-1.264 0-2.243.49-2.94 1.495-.618.851-.902 1.96-.902 3.3 0 1.341.284 2.424.902 3.275.697.98 1.676 1.495 2.94 1.495 1.263 0 2.243-.515 2.965-1.495.618-.877.928-1.96.928-3.274 0-1.341-.31-2.45-.928-3.3Zm10.313-2.99c.618-.516 1.34-.748 2.165-.748.671 0 1.264.103 1.728.335v2.733a6.51 6.51 0 0 0-1.934-.284c-.825 0-1.573.336-2.217 1.006-.696.722-1.032 1.676-1.032 2.836v7.064h-2.732v-13.33h2.732v2.012c.336-.722.774-1.263 1.29-1.624Zm9.616-4.693-2.732 1.135v3.17h-2.476v2.27h2.476v7.734c0 1.057.232 1.857.747 2.424.516.593 1.367.902 2.501.902h2.192v-2.269h-1.754c-.335 0-.567-.103-.721-.257-.155-.18-.233-.439-.233-.8v-7.734h3.043v-2.27h-3.043V37.6Zm20.498 3.945c-1.805 0-3.197.644-4.126 1.96v-1.6h-2.552V60.34h2.733v-7.064c1.083 1.547 2.423 2.32 4.074 2.32 1.907 0 3.429-.696 4.511-2.088 1.006-1.29 1.522-2.913 1.522-4.873 0-2.063-.516-3.713-1.547-5.002-1.135-1.392-2.656-2.088-4.615-2.088Zm-.413 2.217c1.341 0 2.321.464 2.965 1.444.516.825.799 1.96.799 3.43 0 1.469-.309 2.603-.876 3.428-.645.877-1.625 1.315-2.965 1.315-1.032 0-1.857-.413-2.475-1.212-.722-.876-1.057-2.036-1.057-3.455v-.232c0-1.366.283-2.475.85-3.3.645-.954 1.573-1.418 2.759-1.418Zm15.341-2.217c-.825 0-1.547.232-2.166.748-.516.36-.954.902-1.289 1.624v-2.011h-2.733v13.33h2.733V48.17c0-1.16.335-2.114 1.031-2.836.645-.67 1.392-1.006 2.217-1.006.619 0 1.264.078 1.934.284v-2.733c-.464-.232-1.057-.335-1.727-.335Zm9.049 0c-1.959 0-3.532.67-4.666 2.037-1.186 1.34-1.753 2.99-1.753 4.976 0 2.191.618 3.919 1.856 5.208 1.134 1.212 2.707 1.83 4.666 1.83 1.779 0 3.249-.515 4.409-1.52.928-.826 1.521-1.883 1.831-3.12h-2.733c-.361.773-.748 1.366-1.212 1.727-.593.438-1.366.67-2.32.67-1.083 0-1.934-.36-2.553-1.031-.619-.696-.954-1.702-1.057-2.99h10.107c-.026-2.373-.567-4.23-1.599-5.57-1.134-1.495-2.81-2.217-4.976-2.217Zm.078 2.243c2.165 0 3.377 1.16 3.635 3.48h-7.193c.154-1.134.541-1.985 1.108-2.578.619-.618 1.418-.902 2.45-.902Zm13.793-2.243c-1.598 0-2.913.335-3.919 1.031-1.005.67-1.495 1.624-1.495 2.836 0 1.135.516 2.037 1.547 2.682.619.412 1.727.799 3.3 1.16 1.367.31 2.269.567 2.682.773.773.361 1.186.877 1.186 1.521 0 1.187-1.083 1.805-3.197 1.805-1.032 0-1.754-.18-2.218-.515-.464-.361-.799-1.006-.954-1.908h-2.681c.309 3.094 2.269 4.666 5.93 4.666 3.945 0 5.93-1.418 5.93-4.228 0-1.186-.542-2.114-1.599-2.784-.722-.465-1.856-.903-3.377-1.264-1.341-.335-2.217-.593-2.682-.8-.721-.334-1.082-.721-1.082-1.185 0-.516.232-.928.721-1.186.413-.258 1.032-.361 1.857-.361.928 0 1.65.155 2.114.464.438.284.748.774.954 1.495h2.656c-.31-2.81-2.218-4.202-5.673-4.202Zm9.488 1.031c1.006-.696 2.321-1.031 3.919-1.031 3.455 0 5.363 1.392 5.672 4.202h-2.655c-.206-.721-.516-1.211-.954-1.495-.464-.31-1.186-.464-2.114-.464-.825 0-1.444.103-1.857.36-.489.259-.722.671-.722 1.187 0 .464.361.85 1.083 1.186.464.206 1.341.464 2.682.8 1.521.36 2.655.798 3.377 1.263 1.057.67 1.599 1.598 1.599 2.784 0 2.81-1.985 4.228-5.93 4.228-3.661 0-5.621-1.572-5.93-4.666h2.681c.155.902.49 1.547.954 1.908.464.335 1.186.515 2.217.515 2.115 0 3.197-.618 3.197-1.804 0-.645-.412-1.16-1.186-1.522-.412-.206-1.314-.464-2.681-.773-1.573-.361-2.681-.748-3.3-1.16-1.031-.645-1.547-1.547-1.547-2.682 0-1.212.49-2.166 1.495-2.836Z" clip-rule="evenodd"/>
  <defs>
    <linearGradient id="b" x1="623.283" x2="671.9" y1="162.876" y2="224.039" gradientUnits="userSpaceOnUse">
      <stop stop-color="#FBFBFB"/>
      <stop offset="1" stop-color="#F5F5F5"/>
    </linearGradient>
    <linearGradient id="d" x1="622.077" x2="670.609" y1="41.695" y2="102.751" gradientUnits="userSpaceOnUse">
      <stop stop-color="#FBFBFB"/>
      <stop offset="1" stop-color="#F5F5F5"/>
    </linearGradient>
    <linearGradient id="f" x1="141.703" x2="141.703" y1="98.323" y2="132.148" gradientUnits="userSpaceOnUse">
      <stop stop-color="#AEECFF"/>
      <stop offset="1" stop-color="#4FC8FA"/>
    </linearGradient>
    <linearGradient id="j" x1="13.608" x2="13.608" y1="73.606" y2="142.358" gradientUnits="userSpaceOnUse">
      <stop stop-color="#F6F6F6"/>
      <stop offset="1" stop-color="#F4F4F4"/>
    </linearGradient>
    <linearGradient id="k" x1="15.35" x2="53.415" y1="99.685" y2="119.733" gradientUnits="userSpaceOnUse">
      <stop stop-color="#AFDBFF"/>
      <stop offset="1" stop-color="#3F8AF5"/>
    </linearGradient>
    <linearGradient id="m" x1="556.599" x2="556.599" y1="39.48" y2="53.01" gradientUnits="userSpaceOnUse">
      <stop stop-color="#AEECFF"/>
      <stop offset="1" stop-color="#4FC8FA"/>
    </linearGradient>
    <linearGradient id="o" x1="556.599" x2="556.599" y1="161.277" y2="174.807" gradientUnits="userSpaceOnUse">
      <stop stop-color="#AEECFF"/>
      <stop offset="1" stop-color="#4FC8FA"/>
    </linearGradient>
    <linearGradient id="q" x1="513.844" x2="513.844" y1="192.061" y2="141.924" gradientUnits="userSpaceOnUse">
      <stop stop-color="#8973EF"/>
      <stop offset="1" stop-color="#CEA6E6" stop-opacity=".497"/>
    </linearGradient>
    <linearGradient id="t" x1="490.538" x2="490.538" y1="70.264" y2="20.127" gradientUnits="userSpaceOnUse">
      <stop stop-color="#8973EF"/>
      <stop offset="1" stop-color="#CEA6E6" stop-opacity=".497"/>
    </linearGradient>
    <filter id="a" width="113.34" height="113.341" x="621.254" y="122.036" color-interpolation-filters="sRGB" filterUnits="userSpaceOnUse">
      <feFlood flood-opacity="0" result="BackgroundImageFix"/>
      <feColorMatrix in="SourceAlpha" result="hardAlpha" values="0 0 0 0 0 0 0 0 0 0 0 0 0 0 0 0 0 0 127 0"/>
      <feOffset dx="7" dy="11"/>
      <feGaussianBlur stdDeviation="9"/>
      <feColorMatrix values="0 0 0 0 0 0 0 0 0 0 0 0 0 0 0 0 0 0 0.08 0"/>
      <feBlend in2="BackgroundImageFix" result="effect1_dropShadow_0_95"/>
      <feBlend in="SourceGraphic" in2="effect1_dropShadow_0_95" result="shape"/>
      <feColorMatrix in="SourceAlpha" result="hardAlpha" values="0 0 0 0 0 0 0 0 0 0 0 0 0 0 0 0 0 0 127 0"/>
      <feMorphology in="SourceAlpha" radius="3" result="effect2_innerShadow_0_95"/>
      <feOffset dx="-4" dy="-4"/>
      <feComposite in2="hardAlpha" k2="-1" k3="1" operator="arithmetic"/>
      <feColorMatrix values="0 0 0 0 0.835707 0 0 0 0 0.852106 0 0 0 0 0.893428 0 0 0 1 0"/>
      <feBlend in2="shape" result="effect2_innerShadow_0_95"/>
    </filter>
    <filter id="c" width="112.277" height="112.277" x="621.115" y=".771" color-interpolation-filters="sRGB" filterUnits="userSpaceOnUse">
      <feFlood flood-opacity="0" result="BackgroundImageFix"/>
      <feColorMatrix in="SourceAlpha" result="hardAlpha" values="0 0 0 0 0 0 0 0 0 0 0 0 0 0 0 0 0 0 127 0"/>
      <feOffset dx="7" dy="11"/>
      <feGaussianBlur stdDeviation="9"/>
      <feColorMatrix values="0 0 0 0 0 0 0 0 0 0 0 0 0 0 0 0 0 0 0.08 0"/>
      <feBlend in2="BackgroundImageFix" result="effect1_dropShadow_0_95"/>
      <feBlend in="SourceGraphic" in2="effect1_dropShadow_0_95" result="shape"/>
      <feColorMatrix in="SourceAlpha" result="hardAlpha" values="0 0 0 0 0 0 0 0 0 0 0 0 0 0 0 0 0 0 127 0"/>
      <feMorphology in="SourceAlpha" radius="3" result="effect2_innerShadow_0_95"/>
      <feOffset dx="-4" dy="-4"/>
      <feComposite in2="hardAlpha" k2="-1" k3="1" operator="arithmetic"/>
      <feColorMatrix values="0 0 0 0 0.835707 0 0 0 0 0.852106 0 0 0 0 0.893428 0 0 0 1 0"/>
      <feBlend in2="shape" result="effect2_innerShadow_0_95"/>
    </filter>
    <filter id="e" width="52.285" height="52.286" x="132.473" y="92.862" color-interpolation-filters="sRGB" filterUnits="userSpaceOnUse">
      <feFlood flood-opacity="0" result="BackgroundImageFix"/>
      <feColorMatrix in="SourceAlpha" result="hardAlpha" values="0 0 0 0 0 0 0 0 0 0 0 0 0 0 0 0 0 0 127 0"/>
      <feOffset dy="4"/>
      <feGaussianBlur stdDeviation="3"/>
      <feColorMatrix values="0 0 0 0 0 0 0 0 0 0 0 0 0 0 0 0 0 0 0.100845 0"/>
      <feBlend in2="BackgroundImageFix" result="effect1_dropShadow_0_95"/>
      <feBlend in="SourceGraphic" in2="effect1_dropShadow_0_95" result="shape"/>
    </filter>
    <filter id="h" width="108" height="102.798" x=".982" y="72.606" color-interpolation-filters="sRGB" filterUnits="userSpaceOnUse">
      <feFlood flood-opacity="0" result="BackgroundImageFix"/>
      <feColorMatrix in="SourceAlpha" result="hardAlpha" values="0 0 0 0 0 0 0 0 0 0 0 0 0 0 0 0 0 0 127 0"/>
      <feOffset dx="7" dy="9"/>
      <feGaussianBlur stdDeviation="5"/>
      <feColorMatrix values="0 0 0 0 0 0 0 0 0 0 0 0 0 0 0 0 0 0 0.0267906 0"/>
      <feBlend in2="BackgroundImageFix" result="effect1_dropShadow_0_95"/>
      <feBlend in="SourceGraphic" in2="effect1_dropShadow_0_95" result="shape"/>
    </filter>
    <filter id="i" width="70.4" height="73.4" x="12.783" y="73.606" color-interpolation-filters="sRGB" filterUnits="userSpaceOnUse">
      <feFlood flood-opacity="0" result="BackgroundImageFix"/>
      <feColorMatrix in="SourceAlpha" result="hardAlpha" values="0 0 0 0 0 0 0 0 0 0 0 0 0 0 0 0 0 0 127 0"/>
      <feOffset dy="3"/>
      <feColorMatrix values="0 0 0 0 0.564706 0 0 0 0 0.619608 0 0 0 0 0.686275 0 0 0 1 0"/>
      <feBlend in2="BackgroundImageFix" result="effect1_dropShadow_0_95"/>
      <feBlend in="SourceGraphic" in2="effect1_dropShadow_0_95" result="shape"/>
      <feColorMatrix in="SourceAlpha" result="hardAlpha" values="0 0 0 0 0 0 0 0 0 0 0 0 0 0 0 0 0 0 127 0"/>
      <feOffset/>
      <feGaussianBlur stdDeviation=".5"/>
      <feComposite in2="hardAlpha" k2="-1" k3="1" operator="arithmetic"/>
      <feColorMatrix values="0 0 0 0 1 0 0 0 0 1 0 0 0 0 1 0 0 0 0.763658 0"/>
      <feBlend in2="shape" result="effect2_innerShadow_0_95"/>
    </filter>
    <filter id="l" width="57" height="49.821" x="537.738" y="26.999" color-interpolation-filters="sRGB" filterUnits="userSpaceOnUse">
      <feFlood flood-opacity="0" result="BackgroundImageFix"/>
      <feColorMatrix in="SourceAlpha" result="hardAlpha" values="0 0 0 0 0 0 0 0 0 0 0 0 0 0 0 0 0 0 127 0"/>
      <feOffset dx="-2" dy="6"/>
      <feGaussianBlur stdDeviation="7"/>
      <feColorMatrix values="0 0 0 0 0.0862745 0 0 0 0 0.34902 0 0 0 0 0.376471 0 0 0 0.1 0"/>
      <feBlend in2="BackgroundImageFix" result="effect1_dropShadow_0_95"/>
      <feBlend in="SourceGraphic" in2="effect1_dropShadow_0_95" result="shape"/>
    </filter>
    <filter id="n" width="57" height="49.821" x="537.738" y="148.796" color-interpolation-filters="sRGB" filterUnits="userSpaceOnUse">
      <feFlood flood-opacity="0" result="BackgroundImageFix"/>
      <feColorMatrix in="SourceAlpha" result="hardAlpha" values="0 0 0 0 0 0 0 0 0 0 0 0 0 0 0 0 0 0 127 0"/>
      <feOffset dx="-2" dy="6"/>
      <feGaussianBlur stdDeviation="7"/>
      <feColorMatrix values="0 0 0 0 0.0862745 0 0 0 0 0.34902 0 0 0 0 0.376471 0 0 0 0.1 0"/>
      <feBlend in2="BackgroundImageFix" result="effect1_dropShadow_0_95"/>
      <feBlend in="SourceGraphic" in2="effect1_dropShadow_0_95" result="shape"/>
    </filter>
    <filter id="p" width="346.188" height="97.753" x="194.906" y="128.831" color-interpolation-filters="sRGB" filterUnits="userSpaceOnUse">
      <feFlood flood-opacity="0" result="BackgroundImageFix"/>
      <feColorMatrix in="SourceAlpha" result="hardAlpha" values="0 0 0 0 0 0 0 0 0 0 0 0 0 0 0 0 0 0 127 0"/>
      <feOffset dy="10"/>
      <feGaussianBlur stdDeviation="10"/>
      <feColorMatrix values="0 0 0 0 0.0862745 0 0 0 0 0.34902 0 0 0 0 0.376471 0 0 0 0.1 0"/>
      <feBlend in2="BackgroundImageFix" result="effect1_dropShadow_0_95"/>
      <feBlend in="SourceGraphic" in2="effect1_dropShadow_0_95" result="shape"/>
    </filter>
    <filter id="s" width="322.553" height="97.753" x="194.906" y="7.033" color-interpolation-filters="sRGB" filterUnits="userSpaceOnUse">
      <feFlood flood-opacity="0" result="BackgroundImageFix"/>
      <feColorMatrix in="SourceAlpha" result="hardAlpha" values="0 0 0 0 0 0 0 0 0 0 0 0 0 0 0 0 0 0 127 0"/>
      <feOffset dy="10"/>
      <feGaussianBlur stdDeviation="10"/>
      <feColorMatrix values="0 0 0 0 0.0862745 0 0 0 0 0.34902 0 0 0 0 0.376471 0 0 0 0.1 0"/>
      <feBlend in2="BackgroundImageFix" result="effect1_dropShadow_0_95"/>
      <feBlend in="SourceGraphic" in2="effect1_dropShadow_0_95" result="shape"/>
    </filter>
  </defs>
</svg>
