<svg xmlns="http://www.w3.org/2000/svg" fill="none" viewBox="0 0 48 48">
  <path fill="#262B62" fill-rule="evenodd" d="M6.967 0A6.967 6.967 0 0 0 0 6.967v34.066A6.967 6.967 0 0 0 6.967 48h34.066A6.967 6.967 0 0 0 48 41.033V6.967A6.967 6.967 0 0 0 41.033 0H6.967Zm5.79 16.968v5.523h7.848v3.44h-7.847v8.542H8.804V13.527h12.404v3.44h-8.45Zm21.007.905c1.026 0 1.886.121 2.58.362.694.242 1.252.594 1.675 1.057.422.463.724 1.031.905 1.705.181.674.272 1.444.272 2.309v11.167h-3.773v-10.11c0-1.148-.18-1.993-.543-2.536-.362-.543-1.117-.815-2.263-.815-.966 0-1.786.176-2.46.528-.674.352-1.182 1.041-1.524 2.068v10.865H24.86V18.175h3.773v2.052c.463-.845 1.152-1.448 2.067-1.81.916-.363 1.937-.544 3.064-.544Z" clip-rule="evenodd"/>
</svg>
