<svg xmlns="http://www.w3.org/2000/svg" fill="none" viewBox="0 0 410 139">
  <g filter="url(#a)">
    <rect width="79.2" height="63" x="9.467" y="36.628" fill="#D5DDE7" rx="6.505"/>
    <g filter="url(#b)">
      <rect width="63.36" height="63.36" x="17.387" y="25.109" fill="url(#c)" rx="6.3"/>
    </g>
    <path fill="url(#d)" fill-rule="evenodd" d="M50.572 36.916a1.62 1.62 0 0 1 1.674-.103c.533.28.866.834.864 1.436v17.28a1.62 1.62 0 0 1-2.538 1.334l-7.517-5.114H39.61a1.62 1.62 0 0 1-1.62-1.62v-6.453c0-.894.725-1.62 1.62-1.62h3.445l7.517-5.14ZM40.69 49.589h1.62v-5.4h-1.62a.54.54 0 0 0-.54.54v4.32a.54.54 0 0 0 .54.54Zm10.26 4.941-6.48-4.428v-6.41l6.48-4.428V54.53Zm3.24-10.34a1.08 1.08 0 0 1 2.16 0v5.4a1.08 1.08 0 1 1-2.16 0v-5.4Zm4.32-3.24a1.08 1.08 0 0 0-1.08 1.08v9.72a1.08 1.08 0 0 0 2.16 0v-9.72a1.08 1.08 0 0 0-1.08-1.08Zm-1.795 24.976c-1.109 0-2.001.374-2.678 1.123-.663.706-.994 1.627-1.008 2.78h1.685c.028-.807.201-1.426.518-1.83.317-.431.792-.647 1.426-.647.59 0 1.036.13 1.339.403.288.273.446.691.446 1.253 0 .576-.23 1.123-.677 1.627-.288.302-.748.691-1.41 1.152-1.196.82-1.988 1.454-2.362 1.886-.692.778-1.023 1.685-1.023 2.736h7.171v-1.483h-5.068c.23-.518.864-1.123 1.915-1.814 1.008-.677 1.728-1.224 2.131-1.656.662-.735 1.008-1.541 1.008-2.434 0-.922-.317-1.656-.95-2.232-.648-.576-1.47-.864-2.463-.864ZM38.96 76.41V66.128h7.013v1.44h-5.328v2.85h5.025v1.44h-5.025v4.551H38.96Zm9.418-9.273c.518-.317.95-.648 1.296-1.008h1.267V76.41h-1.685v-8.25c-.62.56-1.397.978-2.347 1.252v-1.67c.46-.116.95-.317 1.469-.605Z" clip-rule="evenodd"/>
  </g>
  <g filter="url(#e)">
    <mask id="g" width="30" height="30" x="116.223" y="47.026" fill="#000" maskUnits="userSpaceOnUse">
      <path fill="#fff" d="M116.223 47.026h30v30h-30z"/>
      <path fill-rule="evenodd" d="M133.726 51.466a1.44 1.44 0 0 0-1.44-1.44h-1.44a1.44 1.44 0 0 0-1.44 1.44v8.742h-8.743a1.44 1.44 0 0 0-1.44 1.44v1.44c0 .796.644 1.44 1.44 1.44h8.743v8.743c0 .796.644 1.44 1.44 1.44h1.44a1.44 1.44 0 0 0 1.44-1.44v-8.743h8.742a1.44 1.44 0 0 0 1.44-1.44v-1.44a1.44 1.44 0 0 0-1.44-1.44h-8.742v-8.742Z" clip-rule="evenodd"/>
    </mask>
    <path fill="url(#f)" fill-rule="evenodd" d="M133.726 51.466a1.44 1.44 0 0 0-1.44-1.44h-1.44a1.44 1.44 0 0 0-1.44 1.44v8.742h-8.743a1.44 1.44 0 0 0-1.44 1.44v1.44c0 .796.644 1.44 1.44 1.44h8.743v8.743c0 .796.644 1.44 1.44 1.44h1.44a1.44 1.44 0 0 0 1.44-1.44v-8.743h8.742a1.44 1.44 0 0 0 1.44-1.44v-1.44a1.44 1.44 0 0 0-1.44-1.44h-8.742v-8.742Z" clip-rule="evenodd"/>
    <path fill="#fff" d="M129.406 60.209v2.16h2.16v-2.16h-2.16Zm0 4.32h2.16v-2.16h-2.16v2.16Zm4.32 0v-2.16h-2.16v2.16h2.16Zm0-4.32h-2.16v2.16h2.16v-2.16Zm-1.44-8.023a.72.72 0 0 1-.72-.72h4.32a3.6 3.6 0 0 0-3.6-3.6v4.32Zm-1.44 0h1.44v-4.32h-1.44v4.32Zm.72-.72a.72.72 0 0 1-.72.72v-4.32a3.6 3.6 0 0 0-3.6 3.6h4.32Zm0 8.742v-8.742h-4.32v8.742h4.32Zm-10.903 2.16h8.743v-4.32h-8.743v4.32Zm.72-.72a.72.72 0 0 1-.72.72v-4.32a3.6 3.6 0 0 0-3.6 3.6h4.32Zm0 1.44v-1.44h-4.32v1.44h4.32Zm-.72-.72a.72.72 0 0 1 .72.72h-4.32a3.6 3.6 0 0 0 3.6 3.6v-4.32Zm8.743 0h-8.743v4.32h8.743v-4.32Zm2.16 10.903v-8.743h-4.32v8.743h4.32Zm-.72-.72a.72.72 0 0 1 .72.72h-4.32a3.6 3.6 0 0 0 3.6 3.6v-4.32Zm1.44 0h-1.44v4.32h1.44v-4.32Zm-.72.72a.72.72 0 0 1 .72-.72v4.32a3.6 3.6 0 0 0 3.6-3.6h-4.32Zm0-8.743v8.743h4.32v-8.743h-4.32Zm10.902-2.16h-8.742v4.32h8.742v-4.32Zm-.72.72a.72.72 0 0 1 .72-.72v4.32a3.6 3.6 0 0 0 3.6-3.6h-4.32Zm0-1.44v1.44h4.32v-1.44h-4.32Zm.72.72a.72.72 0 0 1-.72-.72h4.32a3.6 3.6 0 0 0-3.6-3.6v4.32Zm-8.742 0h8.742v-4.32h-8.742v4.32Zm-2.16-10.902v8.742h4.32v-8.742h-4.32Z" mask="url(#g)"/>
  </g>
  <g filter="url(#h)">
    <mask id="j" width="215" height="42" x="180.533" y="75.849" fill="#000" maskUnits="userSpaceOnUse">
      <path fill="#fff" d="M180.533 75.849h215v42h-215z"/>
      <path fill-rule="evenodd" d="M201.533 78.85c-9.941 0-18 8.058-18 18 0 9.94 8.059 17.999 18 17.999h136.8c9.941 0 18-8.059 18-18 0-9.94-8.059-18-18-18h-136.8Zm164.544 5.26v5.46c3.12 1.04 5.2 3.9 5.2 7.28 0 3.379-2.08 6.239-5.2 7.279v5.46c5.98-1.3 10.4-6.5 10.4-12.74s-4.42-11.44-10.4-12.74Zm16.5 0v5.46c3.12 1.04 5.2 3.9 5.2 7.28 0 3.379-2.08 6.239-5.2 7.279v5.46c5.98-1.3 10.4-6.5 10.4-12.74s-4.42-11.44-10.4-12.74Z" clip-rule="evenodd"/>
    </mask>
    <path fill="url(#i)" fill-rule="evenodd" d="M201.533 78.85c-9.941 0-18 8.058-18 18 0 9.94 8.059 17.999 18 17.999h136.8c9.941 0 18-8.059 18-18 0-9.94-8.059-18-18-18h-136.8Zm164.544 5.26v5.46c3.12 1.04 5.2 3.9 5.2 7.28 0 3.379-2.08 6.239-5.2 7.279v5.46c5.98-1.3 10.4-6.5 10.4-12.74s-4.42-11.44-10.4-12.74Zm16.5 0v5.46c3.12 1.04 5.2 3.9 5.2 7.28 0 3.379-2.08 6.239-5.2 7.279v5.46c5.98-1.3 10.4-6.5 10.4-12.74s-4.42-11.44-10.4-12.74Z" clip-rule="evenodd"/>
    <path fill="#fff" fill-opacity=".538" d="M366.077 89.57h-2.16v1.556l1.477.492.683-2.049Zm0-5.46.459-2.111-2.619-.57v2.68h2.16Zm0 20.019-.683-2.049-1.477.492v1.557h2.16Zm0 5.46h-2.16v2.68l2.619-.569-.459-2.111Zm16.5-20.02h-2.16v1.557l1.477.492.683-2.049Zm0-5.46.459-2.11-2.619-.57v2.68h2.16Zm0 20.02-.683-2.049-1.477.492v1.557h2.16Zm0 5.46h-2.16v2.68l2.619-.569-.459-2.111Zm-196.884-12.74c0-8.748 7.092-15.84 15.84-15.84v-4.32c-11.134 0-20.16 9.026-20.16 20.16h4.32Zm15.84 15.84c-8.748 0-15.84-7.091-15.84-15.84h-4.32c0 11.134 9.026 20.16 20.16 20.16v-4.32Zm136.8 0h-136.8v4.32h136.8v-4.32Zm15.84-15.84c0 8.749-7.092 15.84-15.84 15.84v4.32c11.134 0 20.16-9.026 20.16-20.16h-4.32Zm-15.84-15.84c8.748 0 15.84 7.092 15.84 15.84h4.32c0-11.134-9.026-20.16-20.16-20.16v4.32Zm-136.8 0h136.8v-4.32h-136.8v4.32Zm166.704 8.56v-5.46h-4.32v5.46h4.32Zm5.2 7.28c0-4.303-2.668-7.993-6.677-9.329l-1.366 4.099c2.232.743 3.723 2.773 3.723 5.23h4.32Zm-6.677 9.329c4.009-1.336 6.677-5.026 6.677-9.329h-4.32c0 2.457-1.491 4.487-3.723 5.231l1.366 4.098Zm1.477 3.411v-5.46h-4.32v5.46h4.32Zm6.08-12.74c0 5.18-3.668 9.536-8.699 10.63l.918 4.221c6.929-1.506 12.101-7.55 12.101-14.85h-4.32Zm-8.699-10.629c5.031 1.094 8.699 5.45 8.699 10.63h4.32c0-7.301-5.172-13.345-12.101-14.851l-.918 4.221Zm19.119 3.35v-5.46h-4.32v5.46h4.32Zm5.2 7.28c0-4.304-2.668-7.994-6.677-9.33l-1.366 4.099c2.232.743 3.723 2.773 3.723 5.23h4.32Zm-6.677 9.328c4.009-1.336 6.677-5.026 6.677-9.329h-4.32c0 2.457-1.491 4.487-3.723 5.231l1.366 4.098Zm1.477 3.411v-5.46h-4.32v5.46h4.32Zm6.08-12.74c0 5.18-3.668 9.536-8.699 10.63l.918 4.221c6.929-1.506 12.101-7.55 12.101-14.85h-4.32Zm-8.699-10.629c5.031 1.094 8.699 5.45 8.699 10.63h4.32c0-7.301-5.172-13.345-12.101-14.851l-.918 4.221Z" mask="url(#j)"/>
  </g>
  <path fill="#fff" d="M227.869 88.39v13.103h1.908V88.389h-1.908Z"/>
  <path fill="#fff" fill-rule="evenodd" d="M233.053 93.34c.846-.937 1.98-1.405 3.384-1.405s2.538.468 3.384 1.404c.828.918 1.26 2.088 1.26 3.51 0 1.404-.414 2.574-1.242 3.474-.864.936-1.998 1.422-3.402 1.422-1.404 0-2.538-.486-3.402-1.422-.828-.9-1.242-2.07-1.242-3.474 0-1.422.414-2.592 1.26-3.51Zm5.454 1.205c-.504-.702-1.188-1.044-2.07-1.044-.882 0-1.566.342-2.052 1.044-.432.594-.63 1.368-.63 2.304 0 .936.198 1.692.63 2.286.486.684 1.17 1.044 2.052 1.044.882 0 1.566-.36 2.07-1.044.432-.612.648-1.368.648-2.286 0-.936-.216-1.71-.648-2.304Z" clip-rule="evenodd"/>
  <path fill="#fff" d="M247.614 91.935c-.576 0-1.098.108-1.566.36a3.573 3.573 0 0 0-1.242 1.044v-1.152h-1.908v9.306h1.908v-5.598c.072-.756.342-1.35.774-1.782a1.942 1.942 0 0 1 1.422-.576c1.44 0 2.178.792 2.178 2.376v5.58h1.908v-5.742c0-2.556-1.17-3.816-3.474-3.816Z"/>
  <path fill="#fff" fill-rule="evenodd" d="M254.076 93.25c.774-.883 1.8-1.315 3.06-1.315 1.224 0 2.16.486 2.844 1.494v-1.242h1.908v8.694c0 2.952-1.458 4.428-4.338 4.428-1.296 0-2.286-.252-2.97-.738-.684-.504-1.098-1.26-1.278-2.286h1.908c.108.54.324.936.684 1.17.342.216.9.342 1.656.342 1.62 0 2.43-.882 2.43-2.628v-1.44c-.684 1.026-1.62 1.548-2.844 1.548-1.26 0-2.286-.432-3.06-1.278-.792-.846-1.17-1.962-1.17-3.366 0-1.404.378-2.52 1.17-3.384Zm5.256 1.08c-.468-.577-1.098-.847-1.908-.847-.81 0-1.44.27-1.872.846-.468.54-.684 1.314-.684 2.304 0 .9.18 1.62.54 2.142.414.612 1.08.936 2.016.936.81 0 1.44-.27 1.908-.81.432-.558.666-1.314.666-2.268 0-.972-.234-1.746-.666-2.304Zm12.493-1.027c.648-.918 1.62-1.368 2.88-1.368 1.368 0 2.43.486 3.222 1.458.72.9 1.08 2.052 1.08 3.492 0 1.368-.36 2.502-1.062 3.402-.756.972-1.818 1.458-3.15 1.458-1.152 0-2.088-.54-2.844-1.62v4.932h-1.908v-12.87h1.782v1.116Zm4.662 1.188c-.45-.684-1.134-1.008-2.07-1.008-.828 0-1.476.324-1.926.99-.396.576-.594 1.35-.594 2.304v.162c0 .99.234 1.8.738 2.412.432.558 1.008.846 1.728.846.936 0 1.62-.306 2.07-.918.396-.576.612-1.368.612-2.394s-.198-1.818-.558-2.394Z" clip-rule="evenodd"/>
  <path fill="#fff" d="M285.127 91.935c-.576 0-1.08.162-1.512.522-.36.252-.666.63-.9 1.134v-1.404h-1.908v9.306h1.908v-4.932c0-.81.234-1.476.72-1.98.45-.468.972-.702 1.548-.702.432 0 .882.054 1.35.198V92.17c-.324-.162-.738-.234-1.206-.234Z"/>
  <path fill="#fff" fill-rule="evenodd" d="M288.187 93.357c.792-.954 1.89-1.422 3.258-1.422 1.512 0 2.682.504 3.474 1.548.72.936 1.098 2.232 1.116 3.888h-7.056c.072.9.306 1.602.738 2.088.432.468 1.026.72 1.782.72.666 0 1.206-.162 1.62-.468.324-.252.594-.666.846-1.206h1.908c-.216.864-.63 1.602-1.278 2.178-.81.702-1.836 1.062-3.078 1.062-1.368 0-2.466-.432-3.258-1.278-.864-.9-1.296-2.106-1.296-3.636 0-1.386.396-2.538 1.224-3.474Zm5.85 2.574c-.18-1.62-1.026-2.43-2.538-2.43-.72 0-1.278.198-1.71.63-.396.414-.666 1.008-.774 1.8h5.022Z" clip-rule="evenodd"/>
  <path fill="#fff" d="M301.129 91.935c-1.116 0-2.034.234-2.736.72-.702.468-1.044 1.134-1.044 1.98 0 .792.36 1.422 1.08 1.872.432.288 1.206.558 2.304.81.954.216 1.584.396 1.872.54.54.252.828.612.828 1.062 0 .828-.756 1.26-2.232 1.26-.72 0-1.224-.126-1.548-.36-.324-.252-.558-.702-.666-1.332h-1.872c.216 2.16 1.584 3.258 4.14 3.258 2.754 0 4.14-.99 4.14-2.952 0-.828-.378-1.476-1.116-1.944-.504-.324-1.296-.63-2.358-.882-.936-.234-1.548-.414-1.872-.558-.504-.234-.756-.504-.756-.828 0-.36.162-.648.504-.828.288-.18.72-.252 1.296-.252.648 0 1.152.108 1.476.324.306.198.522.54.666 1.044h1.854c-.216-1.962-1.548-2.934-3.96-2.934Zm9.36 0c-1.116 0-2.034.234-2.736.72-.702.468-1.044 1.134-1.044 1.98 0 .792.36 1.422 1.08 1.872.432.288 1.206.558 2.304.81.954.216 1.584.396 1.872.54.54.252.828.612.828 1.062 0 .828-.756 1.26-2.232 1.26-.72 0-1.224-.126-1.548-.36-.324-.252-.558-.702-.666-1.332h-1.872c.216 2.16 1.584 3.258 4.14 3.258 2.754 0 4.14-.99 4.14-2.952 0-.828-.378-1.476-1.116-1.944-.504-.324-1.296-.63-2.358-.882-.936-.234-1.548-.414-1.872-.558-.504-.234-.756-.504-.756-.828 0-.36.162-.648.504-.828.288-.18.72-.252 1.296-.252.648 0 1.152.108 1.476.324.306.198.522.54.666 1.044h1.854c-.216-1.962-1.548-2.934-3.96-2.934Z"/>
  <g filter="url(#k)">
    <mask id="m" width="199" height="42" x="180.533" y="6.626" fill="#000" maskUnits="userSpaceOnUse">
      <path fill="#fff" d="M180.533 6.626h199v42h-199z"/>
      <path fill-rule="evenodd" d="M201.533 9.626c-9.941 0-18 8.059-18 18s8.059 18 18 18h136.8c9.941 0 18-8.059 18-18s-8.059-18-18-18h-136.8Zm164.544 10.72v-5.46c5.98 1.3 10.4 6.5 10.4 12.74s-4.42 11.44-10.4 12.74v-5.46c3.12-1.04 5.2-3.9 5.2-7.28 0-3.38-2.08-6.24-5.2-7.28Z" clip-rule="evenodd"/>
    </mask>
    <path fill="url(#l)" fill-rule="evenodd" d="M201.533 9.626c-9.941 0-18 8.059-18 18s8.059 18 18 18h136.8c9.941 0 18-8.059 18-18s-8.059-18-18-18h-136.8Zm164.544 10.72v-5.46c5.98 1.3 10.4 6.5 10.4 12.74s-4.42 11.44-10.4 12.74v-5.46c3.12-1.04 5.2-3.9 5.2-7.28 0-3.38-2.08-6.24-5.2-7.28Z" clip-rule="evenodd"/>
    <path fill="#fff" fill-opacity=".538" d="m366.077 14.886.459-2.11-2.619-.57v2.68h2.16Zm0 5.46h-2.16v1.557l1.477.492.683-2.05Zm0 20.02h-2.16v2.68l2.619-.57-.459-2.11Zm0-5.46-.683-2.05-1.477.493v1.557h2.16Zm-180.384-7.28c0-8.748 7.092-15.84 15.84-15.84v-4.32c-11.134 0-20.16 9.026-20.16 20.16h4.32Zm15.84 15.84c-8.748 0-15.84-7.092-15.84-15.84h-4.32c0 11.134 9.026 20.16 20.16 20.16v-4.32Zm136.8 0h-136.8v4.32h136.8v-4.32Zm15.84-15.84c0 8.748-7.092 15.84-15.84 15.84v4.32c11.134 0 20.16-9.026 20.16-20.16h-4.32Zm-15.84-15.84c8.748 0 15.84 7.092 15.84 15.84h4.32c0-11.134-9.026-20.16-20.16-20.16v4.32Zm-136.8 0h136.8v-4.32h-136.8v4.32Zm162.384 3.1v5.46h4.32v-5.46h-4.32Zm14.72 12.74c0-7.3-5.172-13.345-12.101-14.85l-.918 4.22c5.031 1.094 8.699 5.45 8.699 10.63h4.32Zm-12.101 14.85c6.929-1.506 12.101-7.55 12.101-14.85h-4.32c0 5.18-3.668 9.535-8.699 10.63l.918 4.22Zm-2.619-7.57v5.46h4.32v-5.46h-4.32Zm5.2-7.28c0 2.457-1.491 4.487-3.723 5.23l1.366 4.1c4.009-1.337 6.677-5.027 6.677-9.33h-4.32Zm-3.723-5.23c2.232.743 3.723 2.773 3.723 5.23h4.32c0-4.303-2.668-7.993-6.677-9.33l-1.366 4.1Z" mask="url(#m)"/>
  </g>
  <path fill="#fff" d="M227.535 22.838c-1.116 0-2.034.234-2.736.72-.702.468-1.044 1.134-1.044 1.98 0 .792.36 1.422 1.08 1.872.432.288 1.206.558 2.304.81.954.216 1.584.396 1.872.54.54.252.828.612.828 1.062 0 .828-.756 1.26-2.232 1.26-.72 0-1.224-.126-1.548-.36-.324-.252-.558-.702-.666-1.332h-1.872c.216 2.16 1.584 3.258 4.14 3.258 2.754 0 4.14-.99 4.14-2.952 0-.828-.378-1.476-1.116-1.944-.504-.324-1.296-.63-2.358-.882-.936-.234-1.548-.414-1.872-.558-.504-.234-.756-.504-.756-.828 0-.36.162-.648.504-.828.288-.18.72-.252 1.296-.252.648 0 1.152.108 1.476.324.306.198.522.54.666 1.044h1.854c-.216-1.962-1.548-2.934-3.96-2.934Zm5.887-3.546v13.104h1.908v-5.22c0-.81.198-1.476.612-1.998.396-.522.918-.774 1.566-.774.72 0 1.278.216 1.638.666.324.432.504 1.044.504 1.872v5.454h1.908v-5.778c0-1.224-.27-2.16-.81-2.79-.576-.666-1.422-.99-2.538-.99-.594 0-1.116.108-1.584.36-.522.252-.954.666-1.296 1.206v-5.112h-1.908Z"/>
  <path fill="#fff" fill-rule="evenodd" d="M244.617 24.242c.846-.936 1.98-1.404 3.384-1.404s2.538.468 3.384 1.404c.828.918 1.26 2.088 1.26 3.51 0 1.404-.414 2.574-1.242 3.474-.864.936-1.998 1.422-3.402 1.422-1.404 0-2.538-.486-3.402-1.422-.828-.9-1.242-2.07-1.242-3.474 0-1.422.414-2.592 1.26-3.51Zm5.454 1.206c-.504-.702-1.188-1.044-2.07-1.044-.882 0-1.566.342-2.052 1.044-.432.594-.63 1.368-.63 2.304 0 .936.198 1.692.63 2.286.486.684 1.17 1.044 2.052 1.044.882 0 1.566-.36 2.07-1.044.432-.612.648-1.368.648-2.286 0-.936-.216-1.71-.648-2.304Z" clip-rule="evenodd"/>
  <path fill="#fff" d="M258.783 22.838c-.576 0-1.08.162-1.512.522-.36.252-.666.63-.9 1.134V23.09h-1.908v9.306h1.908v-4.932c0-.81.234-1.476.72-1.98.45-.468.972-.702 1.548-.702.432 0 .882.054 1.35.198v-1.908c-.324-.162-.738-.234-1.206-.234Zm5.203-2.754-1.908.792v2.214h-1.728v1.584h1.728v5.4c0 .738.162 1.296.522 1.692.36.414.954.63 1.746.63h1.53v-1.584h-1.224c-.234 0-.396-.072-.504-.18-.108-.126-.162-.306-.162-.558v-5.4h2.124V23.09h-2.124v-3.006Z"/>
  <path fill="#fff" fill-rule="evenodd" d="M275.415 24.206c.648-.918 1.62-1.368 2.88-1.368 1.368 0 2.43.486 3.222 1.458.72.9 1.08 2.052 1.08 3.492 0 1.368-.36 2.502-1.062 3.402-.756.972-1.818 1.458-3.15 1.458-1.152 0-2.088-.54-2.844-1.62v4.932h-1.908V23.09h1.782v1.116Zm4.662 1.188c-.45-.684-1.134-1.008-2.07-1.008-.828 0-1.476.324-1.926.99-.396.576-.594 1.35-.594 2.304v.162c0 .99.234 1.8.738 2.412.432.558 1.008.846 1.728.846.936 0 1.62-.306 2.07-.918.396-.576.612-1.368.612-2.394s-.198-1.818-.558-2.394Z" clip-rule="evenodd"/>
  <path fill="#fff" d="M288.718 22.838c-.576 0-1.08.162-1.512.522-.36.252-.666.63-.9 1.134V23.09h-1.908v9.306h1.908v-4.932c0-.81.234-1.476.72-1.98.45-.468.972-.702 1.548-.702.432 0 .882.054 1.35.198v-1.908c-.324-.162-.738-.234-1.206-.234Z"/>
  <path fill="#fff" fill-rule="evenodd" d="M291.777 24.26c.792-.954 1.89-1.422 3.258-1.422 1.512 0 2.682.504 3.474 1.548.72.936 1.098 2.232 1.116 3.888h-7.056c.072.9.306 1.602.738 2.088.432.468 1.026.72 1.782.72.666 0 1.206-.162 1.62-.468.324-.252.594-.666.846-1.206h1.908c-.216.864-.63 1.602-1.278 2.178-.81.702-1.836 1.062-3.078 1.062-1.368 0-2.466-.432-3.258-1.278-.864-.9-1.296-2.106-1.296-3.636 0-1.386.396-2.538 1.224-3.474Zm5.85 2.574c-.18-1.62-1.026-2.43-2.538-2.43-.72 0-1.278.198-1.71.63-.396.414-.666 1.008-.774 1.8h5.022Z" clip-rule="evenodd"/>
  <path fill="#fff" d="M304.719 22.838c-1.116 0-2.034.234-2.736.72-.702.468-1.044 1.134-1.044 1.98 0 .792.36 1.422 1.08 1.872.432.288 1.206.558 2.304.81.954.216 1.584.396 1.872.54.54.252.828.612.828 1.062 0 .828-.756 1.26-2.232 1.26-.72 0-1.224-.126-1.548-.36-.324-.252-.558-.702-.666-1.332h-1.872c.216 2.16 1.584 3.258 4.14 3.258 2.754 0 4.14-.99 4.14-2.952 0-.828-.378-1.476-1.116-1.944-.504-.324-1.296-.63-2.358-.882-.936-.234-1.548-.414-1.872-.558-.504-.234-.756-.504-.756-.828 0-.36.162-.648.504-.828.288-.18.72-.252 1.296-.252.648 0 1.152.108 1.476.324.306.198.522.54.666 1.044h1.854c-.216-1.962-1.548-2.934-3.96-2.934Zm9.361 0c-1.116 0-2.034.234-2.736.72-.702.468-1.044 1.134-1.044 1.98 0 .792.36 1.422 1.08 1.872.432.288 1.206.558 2.304.81.954.216 1.584.396 1.872.54.54.252.828.612.828 1.062 0 .828-.756 1.26-2.232 1.26-.72 0-1.224-.126-1.548-.36-.324-.252-.558-.702-.666-1.332h-1.872c.216 2.16 1.584 3.258 4.14 3.258 2.754 0 4.14-.99 4.14-2.952 0-.828-.378-1.476-1.116-1.944-.504-.324-1.296-.63-2.358-.882-.936-.234-1.548-.414-1.872-.558-.504-.234-.756-.504-.756-.828 0-.36.162-.648.504-.828.288-.18.72-.252 1.296-.252.648 0 1.152.108 1.476.324.306.198.522.54.666 1.044h1.854c-.216-1.962-1.548-2.934-3.96-2.934Z"/>
  <defs>
    <linearGradient id="c" x1="18.129" x2="18.129" y1="25.109" y2="86.985" gradientUnits="userSpaceOnUse">
      <stop stop-color="#F6F6F6"/>
      <stop offset="1" stop-color="#F4F4F4"/>
    </linearGradient>
    <linearGradient id="d" x1="19.697" x2="53.955" y1="48.58" y2="66.624" gradientUnits="userSpaceOnUse">
      <stop stop-color="#AFDBFF"/>
      <stop offset="1" stop-color="#3F8AF5"/>
    </linearGradient>
    <linearGradient id="f" x1="119.388" x2="119.388" y1="50.357" y2="74.711" gradientUnits="userSpaceOnUse">
      <stop stop-color="#AEECFF"/>
      <stop offset="1" stop-color="#4FC8FA"/>
    </linearGradient>
    <linearGradient id="i" x1="390.076" x2="390.076" y1="113.852" y2="78.849" gradientUnits="userSpaceOnUse">
      <stop stop-color="#8973EF"/>
      <stop offset="1" stop-color="#CEA6E6" stop-opacity=".497"/>
    </linearGradient>
    <linearGradient id="l" x1="373.805" x2="373.805" y1="44.629" y2="9.626" gradientUnits="userSpaceOnUse">
      <stop stop-color="#8973EF"/>
      <stop offset="1" stop-color="#CEA6E6" stop-opacity=".497"/>
    </linearGradient>
    <filter id="a" width="97.199" height="92.518" x=".467" y="24.109" color-interpolation-filters="sRGB" filterUnits="userSpaceOnUse">
      <feFlood flood-opacity="0" result="BackgroundImageFix"/>
      <feColorMatrix in="SourceAlpha" result="hardAlpha" values="0 0 0 0 0 0 0 0 0 0 0 0 0 0 0 0 0 0 127 0"/>
      <feOffset dy="8"/>
      <feGaussianBlur stdDeviation="4.5"/>
      <feColorMatrix values="0 0 0 0 0 0 0 0 0 0 0 0 0 0 0 0 0 0 0.0908664 0"/>
      <feBlend in2="BackgroundImageFix" result="effect1_dropShadow_212_58"/>
      <feBlend in="SourceGraphic" in2="effect1_dropShadow_212_58" result="shape"/>
    </filter>
    <filter id="b" width="63.359" height="66.36" x="17.387" y="25.109" color-interpolation-filters="sRGB" filterUnits="userSpaceOnUse">
      <feFlood flood-opacity="0" result="BackgroundImageFix"/>
      <feColorMatrix in="SourceAlpha" result="hardAlpha" values="0 0 0 0 0 0 0 0 0 0 0 0 0 0 0 0 0 0 127 0"/>
      <feOffset dy="3"/>
      <feColorMatrix values="0 0 0 0 0.564706 0 0 0 0 0.619608 0 0 0 0 0.686275 0 0 0 1 0"/>
      <feBlend in2="BackgroundImageFix" result="effect1_dropShadow_212_58"/>
      <feBlend in="SourceGraphic" in2="effect1_dropShadow_212_58" result="shape"/>
      <feColorMatrix in="SourceAlpha" result="hardAlpha" values="0 0 0 0 0 0 0 0 0 0 0 0 0 0 0 0 0 0 127 0"/>
      <feOffset/>
      <feGaussianBlur stdDeviation=".5"/>
      <feComposite in2="hardAlpha" k2="-1" k3="1" operator="arithmetic"/>
      <feColorMatrix values="0 0 0 0 1 0 0 0 0 1 0 0 0 0 1 0 0 0 0.763658 0"/>
      <feBlend in2="shape" result="effect2_innerShadow_212_58"/>
    </filter>
    <filter id="e" width="39.006" height="39.006" x="112.062" y="45.866" color-interpolation-filters="sRGB" filterUnits="userSpaceOnUse">
      <feFlood flood-opacity="0" result="BackgroundImageFix"/>
      <feColorMatrix in="SourceAlpha" result="hardAlpha" values="0 0 0 0 0 0 0 0 0 0 0 0 0 0 0 0 0 0 127 0"/>
      <feOffset dy="3"/>
      <feGaussianBlur stdDeviation="2.5"/>
      <feColorMatrix values="0 0 0 0 0 0 0 0 0 0 0 0 0 0 0 0 0 0 0.100845 0"/>
      <feBlend in2="BackgroundImageFix" result="effect1_dropShadow_212_58"/>
      <feBlend in="SourceGraphic" in2="effect1_dropShadow_212_58" result="shape"/>
    </filter>
    <filter id="h" width="241.764" height="68.32" x="167.373" y="69.689" color-interpolation-filters="sRGB" filterUnits="userSpaceOnUse">
      <feFlood flood-opacity="0" result="BackgroundImageFix"/>
      <feColorMatrix in="SourceAlpha" result="hardAlpha" values="0 0 0 0 0 0 0 0 0 0 0 0 0 0 0 0 0 0 127 0"/>
      <feOffset dy="7"/>
      <feGaussianBlur stdDeviation="7"/>
      <feColorMatrix values="0 0 0 0 0.0862745 0 0 0 0 0.34902 0 0 0 0 0.376471 0 0 0 0.1 0"/>
      <feBlend in2="BackgroundImageFix" result="effect1_dropShadow_212_58"/>
      <feBlend in="SourceGraphic" in2="effect1_dropShadow_212_58" result="shape"/>
    </filter>
    <filter id="k" width="225.264" height="68.32" x="167.373" y=".466" color-interpolation-filters="sRGB" filterUnits="userSpaceOnUse">
      <feFlood flood-opacity="0" result="BackgroundImageFix"/>
      <feColorMatrix in="SourceAlpha" result="hardAlpha" values="0 0 0 0 0 0 0 0 0 0 0 0 0 0 0 0 0 0 127 0"/>
      <feOffset dy="7"/>
      <feGaussianBlur stdDeviation="7"/>
      <feColorMatrix values="0 0 0 0 0.0862745 0 0 0 0 0.34902 0 0 0 0 0.376471 0 0 0 0.1 0"/>
      <feBlend in2="BackgroundImageFix" result="effect1_dropShadow_212_58"/>
      <feBlend in="SourceGraphic" in2="effect1_dropShadow_212_58" result="shape"/>
    </filter>
  </defs>
</svg>
