<svg xmlns="http://www.w3.org/2000/svg" fill="none" viewBox="0 0 18 18">
  <path fill="#262B62" fill-rule="evenodd" d="M2.613 0A2.613 2.613 0 0 0 0 2.613v12.774A2.613 2.613 0 0 0 2.613 18h12.774A2.613 2.613 0 0 0 18 15.387V2.614A2.613 2.613 0 0 0 15.387 0H2.614Zm7.575 1.871a.606.606 0 0 0-.625.039l-2.81 1.92H5.466a.605.605 0 0 0-.606.605v2.412c0 .335.271.606.606.606h1.287l2.81 1.91a.606.606 0 0 0 .948-.498V2.408a.606.606 0 0 0-.322-.537ZM6.475 6.646H5.87a.202.202 0 0 1-.202-.201V4.83a.202.202 0 0 1 .202-.202h.605v2.018Zm.807.192 2.422 1.655V2.788L7.282 4.442v2.396Zm4.037-2.613a.404.404 0 0 0-.404.403v2.018a.404.404 0 1 0 .807 0V4.628a.404.404 0 0 0-.403-.403Zm.807-.404a.404.404 0 1 1 .807 0v3.633a.404.404 0 1 1-.807 0V3.82Zm-1.282 8.014c.278-.307.645-.461 1.101-.461.409 0 .746.118 1.013.355.26.237.39.539.39.918 0 .367-.142.698-.414 1-.166.178-.462.402-.876.68-.432.285-.693.534-.788.747h2.084v.61h-2.948c0-.433.136-.806.42-1.125.154-.178.48-.438.971-.776.273-.19.462-.35.58-.473.184-.208.279-.433.279-.67 0-.23-.066-.402-.184-.514-.124-.113-.308-.166-.55-.166-.26 0-.456.088-.587.266-.13.166-.2.42-.213.752h-.692c.006-.474.142-.852.414-1.143Zm-6.198-.379v4.228h.692v-1.871h2.067v-.592H5.338v-1.172h2.19v-.592H4.647Zm4.404 0a2.62 2.62 0 0 1-.532.415 2.513 2.513 0 0 1-.604.249v.686c.39-.112.71-.284.965-.515v3.393h.692v-4.227h-.52Z" clip-rule="evenodd"/>
</svg>
